<?xml version="1.0" standalone="no"?>
<!DOCTYPE svg PUBLIC "-//W3C//DTD SVG 20010904//EN"
 "http://www.w3.org/TR/2001/REC-SVG-20010904/DTD/svg10.dtd">
<svg version="1.0" xmlns="http://www.w3.org/2000/svg"
 width="348.000000pt" height="348.000000pt" viewBox="0 0 348.000000 348.000000"
 preserveAspectRatio="xMidYMid meet">
<metadata>
Created by potrace 1.14, written by Peter Selinger 2001-2017
</metadata>
<g transform="translate(0.000000,348.000000) scale(0.100000,-0.100000)"
fill="#000000" stroke="none">
<path d="M1792 2703 c-6 -27 -27 -128 -48 -226 -20 -97 -35 -179 -33 -181 2
-2 16 -2 30 1 23 4 27 12 38 72 7 37 18 90 25 117 l13 49 6 -80 c13 -139 18
-164 33 -158 17 6 17 7 5 -35 -9 -28 -8 -33 6 -30 29 5 30 48 7 278 -13 124
-23 228 -23 233 -1 4 -12 7 -25 7 -21 0 -26 -7 -34 -47z"/>
<path d="M820 2716 c0 -2 8 -10 18 -17 15 -13 16 -12 3 4 -13 16 -21 21 -21
13z"/>
<path d="M1119 2673 c-13 -16 -12 -17 4 -4 9 7 17 15 17 17 0 8 -8 3 -21 -13z"/>
<path d="M1562 2513 c-5 -10 -24 -66 -42 -125 l-33 -108 -84 0 -83 0 0 -27 -1
-28 -24 28 c-13 15 -31 27 -39 27 -8 0 -17 14 -21 33 -9 38 -31 85 -53 110
-14 16 -17 16 -33 1 -16 -15 -16 -18 12 -71 37 -70 38 -122 4 -190 -29 -58
-83 -100 -146 -114 -49 -11 -87 -5 -147 23 -71 33 -103 -1 -38 -42 87 -53 214
-49 296 11 48 35 95 105 104 154 5 26 12 35 26 35 11 0 20 5 20 12 0 9 5 8 15
-2 11 -12 36 -14 122 -10 l108 5 29 83 c24 71 30 80 41 66 8 -12 14 -14 19 -6
4 7 12 12 18 12 6 0 3 -9 -7 -20 -17 -19 -17 -22 0 -82 22 -80 22 -80 45 -65
22 13 25 33 11 69 -5 13 -10 28 -11 33 -1 6 -7 21 -12 35 -5 14 -12 35 -14 48
-2 12 -12 43 -22 70 -19 50 -45 65 -60 35z"/>
<path d="M630 2506 c0 -2 8 -10 18 -17 15 -13 16 -12 3 4 -13 16 -21 21 -21
13z"/>
<path d="M2005 2458 c-4 -12 -35 -175 -35 -184 0 -10 18 -2 42 20 l26 25 11
-27 c5 -15 24 -76 42 -137 37 -128 44 -145 65 -145 16 0 38 46 73 151 l22 66
157 8 c86 4 168 8 182 10 14 1 65 3 114 4 49 0 87 3 85 5 -2 2 -132 10 -287
17 -243 10 -285 10 -293 -2 -5 -8 -18 -43 -30 -78 l-22 -64 -51 169 c-45 148
-54 169 -74 172 -12 2 -24 -3 -27 -10z"/>
<path d="M270 2456 c0 -2 8 -10 18 -17 15 -13 16 -12 3 4 -13 16 -21 21 -21
13z"/>
<path d="M810 2456 c0 -2 8 -10 18 -17 15 -13 16 -12 3 4 -13 16 -21 21 -21
13z"/>
<path d="M920 2350 l0 -40 -40 0 -40 0 0 -55 0 -55 40 0 40 0 0 -40 0 -40 55
0 55 0 0 39 c0 40 0 40 43 43 l42 3 0 50 0 50 -42 3 c-43 3 -43 3 -43 43 l0
39 -55 0 -55 0 0 -40z"/>
<path d="M1720 2275 c-7 -9 -10 -25 -5 -42 5 -22 4 -24 -8 -15 -10 9 -18 8
-35 -3 -20 -15 -20 -17 -5 -60 10 -32 20 -45 33 -45 25 0 32 14 36 74 3 28 7
63 10 79 7 30 -6 36 -26 12z"/>
<path d="M2000 2269 c-13 -22 -5 -58 9 -43 14 15 22 64 12 64 -6 0 -15 -9 -21
-21z"/>
<path d="M1945 2149 c-19 -103 -33 -112 -34 -23 -1 52 -11 104 -20 104 -4 0
-15 -6 -25 -13 -17 -13 -18 -21 -7 -123 6 -60 13 -138 16 -174 9 -101 12 -112
38 -108 20 3 25 18 60 197 35 173 37 195 23 203 -9 5 -16 16 -16 23 0 8 -4 15
-8 15 -5 0 -17 -46 -27 -101z"/>
<path d="M209 2163 c-13 -16 -12 -17 4 -4 9 7 17 15 17 17 0 8 -8 3 -21 -13z"/>
<path d="M295 2030 c44 -44 82 -80 85 -80 2 0 -31 36 -75 80 -44 44 -82 80
-85 80 -2 0 31 -36 75 -80z"/>
<path d="M1264 2008 l-29 -33 33 29 c17 17 32 31 32 33 0 8 -8 1 -36 -29z"/>
<path d="M381 1938 c2 -2 20 -16 39 -33 l35 -30 -29 33 c-17 17 -34 32 -40 32
-5 0 -7 -1 -5 -2z"/>
<path d="M832 1854 c-34 -24 -54 -68 -43 -97 17 -43 91 -79 91 -44 0 8 10 22
22 33 l21 19 -18 -27 c-17 -27 -12 -36 11 -20 39 26 44 93 9 127 -28 29 -61
32 -93 9z m47 -45 c-13 -25 -14 -24 -14 16 0 30 2 33 12 19 9 -12 9 -22 2 -35z"/>
<path d="M2018 1830 c21 -9 22 -14 22 -135 0 -121 -1 -126 -22 -135 -17 -6 -7
-9 42 -9 36 1 58 3 50 6 -24 9 -30 25 -30 81 l0 52 70 0 70 0 0 -64 c0 -59 -2
-65 -22 -69 -13 -2 9 -4 47 -4 39 0 60 2 48 4 -22 4 -23 8 -23 134 0 125 1
130 23 139 16 6 4 9 -48 9 -52 0 -64 -3 -47 -9 19 -8 22 -17 22 -65 l0 -55
-70 0 -70 0 0 48 c0 50 6 66 30 75 8 3 -14 5 -50 6 -49 0 -59 -3 -42 -9z"/>
<path d="M2988 1758 c-18 -19 -22 -28 -12 -28 11 0 14 -17 14 -78 0 -80 9
-102 40 -102 9 0 25 10 36 22 15 19 16 20 2 9 -32 -24 -48 2 -48 80 0 66 1 68
28 72 l27 4 -27 2 c-19 1 -28 7 -30 24 -3 22 -3 22 -30 -5z"/>
<path d="M2370 1722 c-13 -11 -20 -24 -16 -30 11 -19 24 -14 28 11 2 17 10 22
33 22 25 0 31 -4 33 -26 3 -21 -4 -28 -37 -44 -53 -23 -75 -48 -66 -74 9 -29
49 -37 80 -17 23 15 26 15 31 1 8 -19 25 -19 50 0 19 15 19 16 -1 13 -18 -3
-20 4 -23 67 -2 51 -7 73 -19 83 -24 18 -67 15 -93 -6z m80 -97 c0 -37 -25
-60 -54 -49 -26 10 -19 52 12 68 39 22 42 20 42 -19z"/>
<path d="M2553 1722 c9 -10 32 -53 52 -95 34 -73 35 -78 20 -106 -11 -23 -21
-29 -42 -28 -34 2 -39 -26 -7 -31 31 -4 55 31 98 149 21 57 43 110 48 117 8 9
3 12 -18 12 -20 0 -25 -3 -15 -9 11 -7 9 -20 -10 -70 -12 -34 -25 -58 -29 -54
-5 4 -18 32 -31 61 -19 45 -20 55 -8 63 9 6 0 9 -30 9 -42 0 -43 -1 -28 -18z"/>
<path d="M2788 1729 c-19 -11 -25 -49 -8 -49 6 0 15 11 20 25 10 27 38 33 58
13 23 -23 12 -43 -41 -68 -45 -22 -52 -29 -52 -54 0 -42 25 -54 69 -34 29 14
35 15 40 2 8 -21 30 -17 52 8 12 14 13 18 3 10 -23 -18 -29 -6 -29 64 0 44 -5
67 -16 78 -17 18 -70 21 -96 5z m82 -104 c0 -28 -5 -38 -25 -47 -19 -8 -28 -8
-40 2 -23 19 -18 38 18 60 43 27 47 26 47 -15z"/>
<path d="M1504 1606 c-3 -8 -4 -25 -2 -38 2 -19 10 -24 40 -26 33 -3 38 0 44
23 4 15 1 31 -6 40 -16 19 -69 20 -76 1z"/>
<path d="M1363 1576 c-36 -17 -67 -44 -108 -93 -79 -95 -90 -112 -78 -124 7
-7 32 17 77 74 72 91 119 124 190 133 29 4 46 12 46 20 0 22 -69 17 -127 -10z"/>
<path d="M1760 1415 c-12 -15 -8 -48 9 -74 8 -12 14 -12 40 -1 34 14 39 34 15
68 -18 25 -46 29 -64 7z"/>
<path d="M1809 1328 c0 -2 -1 -32 -3 -68 -3 -76 -18 -109 -92 -202 -55 -69
-64 -88 -40 -88 14 0 113 125 139 176 9 18 19 51 23 73 5 31 11 41 23 39 14
-3 16 -23 19 -131 3 -125 2 -128 -20 -137 -17 -7 -7 -9 42 -9 49 0 59 3 43 9
-20 8 -23 16 -23 70 l0 60 70 0 70 0 0 -60 c0 -54 -3 -62 -22 -70 -17 -6 -4
-9 47 -8 39 0 60 3 49 5 -28 5 -34 28 -34 138 0 110 6 133 34 138 11 2 -10 5
-49 5 -51 1 -64 -2 -47 -8 19 -8 22 -17 22 -65 l0 -55 -70 0 -70 0 0 55 c0 48
3 57 23 65 17 7 8 9 -39 9 -60 1 -62 2 -67 31 -4 17 -11 30 -17 30 -5 0 -10
-1 -11 -2z"/>
<path d="M2824 1259 c-10 -17 13 -36 27 -22 12 12 4 33 -11 33 -5 0 -12 -5
-16 -11z"/>
<path d="M3275 1255 c-19 -9 -24 -14 -12 -14 15 -1 17 -14 17 -121 0 -103 -2
-120 -17 -129 -14 -8 -7 -10 32 -11 35 0 46 3 35 10 -12 7 -16 39 -20 144 l-5
134 -30 -13z"/>
<path d="M1090 1235 c13 -14 26 -25 28 -25 3 0 -5 11 -18 25 -13 14 -26 25
-28 25 -3 0 5 -11 18 -25z"/>
<path d="M2962 1222 c-1 -7 -14 -24 -28 -37 -21 -19 -23 -25 -10 -25 13 0 16
-12 16 -78 0 -98 19 -123 66 -87 18 14 18 15 -6 12 -24 -2 -25 0 -28 75 -3 73
-2 77 20 81 22 4 23 4 1 6 -17 1 -23 9 -26 34 -2 17 -5 26 -5 19z"/>
<path d="M2244 1160 c-32 -13 -54 -50 -54 -90 0 -65 61 -105 121 -80 40 17 59
46 59 91 0 29 -7 43 -31 63 -31 27 -58 31 -95 16z m49 -9 c73 -28 50 -179 -23
-156 -46 15 -66 109 -30 145 23 23 21 23 53 11z"/>
<path d="M2438 1159 c-11 -6 -18 -22 -18 -39 0 -23 8 -33 45 -54 46 -28 59
-58 29 -70 -25 -9 -33 -7 -54 14 l-20 20 0 -25 c0 -22 4 -25 40 -25 42 0 80
26 80 55 0 19 -34 50 -72 66 -21 9 -28 18 -26 33 4 30 42 33 62 4 l16 -22 0
27 c0 24 -4 27 -32 27 -18 0 -41 -5 -50 -11z"/>
<path d="M2585 1156 c-28 -12 -29 -13 -7 -18 21 -6 22 -11 22 -110 0 -105 -4
-121 -30 -131 -8 -3 10 -6 40 -6 42 0 51 2 38 10 -12 7 -18 22 -18 49 0 38 0
39 34 33 27 -4 39 0 67 25 28 25 34 37 34 70 0 72 -61 113 -113 76 -20 -14
-22 -14 -22 0 0 19 -5 19 -45 2z m129 -32 c27 -26 24 -89 -5 -119 -15 -15 -24
-17 -46 -9 -25 8 -28 15 -31 63 -2 30 2 59 9 67 15 19 54 18 73 -2z"/>
<path d="M2822 1159 c-21 -8 -22 -10 -8 -25 22 -21 22 -117 0 -138 -14 -15
-12 -16 27 -16 34 0 40 3 31 12 -7 7 -12 44 -12 95 0 46 -3 83 -7 82 -5 0 -18
-4 -31 -10z"/>
<path d="M3082 1154 c-25 -17 -30 -44 -8 -44 8 0 16 10 18 23 2 17 10 22 33
22 25 0 31 -4 33 -26 3 -21 -4 -28 -47 -47 -27 -13 -52 -30 -55 -39 -18 -46
34 -78 78 -49 21 13 25 13 30 1 7 -20 30 -19 46 1 11 12 11 15 -1 12 -11 -2
-15 13 -17 67 -2 51 -7 73 -19 83 -23 17 -64 15 -91 -4z m78 -99 c0 -28 -5
-38 -26 -47 -22 -10 -28 -10 -39 6 -17 23 -9 43 24 61 38 21 41 19 41 -20z"/>
<path d="M1089 1023 l-24 -28 28 24 c25 23 32 31 24 31 -2 0 -14 -12 -28 -27z"/>
<path d="M919 853 c-13 -16 -12 -17 4 -4 9 7 17 15 17 17 0 8 -8 3 -21 -13z"/>
<path d="M1495 830 c10 -11 20 -20 23 -20 3 0 -3 9 -13 20 -10 11 -20 20 -23
20 -3 0 3 -9 13 -20z"/>
</g>
</svg>
